Coordinates
version=1
nRows=19
nColumns=27
inDegrees=yes

Units are S.I. units (second, meters, Newtons, ...)
If the header above contains a line with 'inDegrees', this indicates whether rotational values are in degrees (yes) or radians (no).

endheader
time	pelvis_rotation	pelvis_tilt	pelvis_list	pelvis_tx	pelvis_ty	pelvis_tz	hip_flexion_r	hip_adduction_r	hip_rotation_r	knee_angle_r	knee_rotation_r	knee_adduction_r	knee_angle_r_beta	ankle_angle_r	subtalar_angle_r	mtp_angle_r	hip_flexion_l	hip_adduction_l	hip_rotation_l	knee_angle_l	knee_rotation_l	knee_adduction_l	knee_angle_l_beta	ankle_angle_l	subtalar_angle_l	mtp_angle_l
      4.19000000	      6.44682831	    -37.08635813	      6.08396890	     -0.03332305	      0.62734039	     -1.14302691	    104.29659057	    -47.45519952	      0.02833962	     80.77610995	      0.00000000	      9.88975152	      1.40980908	      8.80192059	      0.00000000	      0.00000000	     98.38938499	    -36.47237688	     -7.22001257	     73.76752349	      0.00000000	     -9.90918255	      1.28748617	      1.23330341	      0.00000000	      0.00000000
      4.19500000	      6.44350926	    -37.12315483	      6.01473649	     -0.03347943	      0.62568156	     -1.14298033	    104.59793377	    -47.51416393	      0.16326604	     81.06523443	      0.00000000	      9.89066639	      1.41485525	      8.89848826	      0.00000000	      0.00000000	     98.78556988	    -36.57543679	     -6.98458485	     74.06414268	      0.00000000	     -9.90989870	      1.29266315	      1.20015413	      0.00000000	      0.00000000
      4.20000000	      6.45059344	    -37.08139647	      6.06544893	     -0.03349320	      0.62400182	     -1.14291351	    104.95161240	    -47.56800477	      0.48214829	     81.36678544	      0.00000000	      9.89139334	      1.42011831	      8.96385652	      0.00000000	      0.00000000	     98.99347802	    -36.71988261	     -6.95017501	     74.36853908	      0.00000000	     -9.91087980	      1.29797587	      1.25957350	      0.00000000	      0.00000000
      4.20500000	      6.42607800	    -37.12575498	      6.05770521	     -0.03365178	      0.62230711	     -1.14285459	    105.35390545	    -47.57492093	      0.74783280	     81.66112137	      0.00000000	      9.89212216	      1.42525544	      9.01356127	      0.00000000	      0.00000000	     99.33911903	    -36.86309995	     -6.81164984	     74.67519224	      0.00000000	     -9.91164626	      1.30332797	      1.27884372	      0.00000000	      0.00000000
      4.21000000	      6.42506921	    -37.14631714	      6.06571806	     -0.03372380	      0.62063870	     -1.14278969	    105.73034558	    -47.61479245	      1.01010993	     81.95784855	      0.00000000	      9.89285557	      1.43043431	      9.10346557	      0.00000000	      0.00000000	     99.64944018	    -36.99979414	     -6.70290024	     74.97037823	      0.00000000	     -9.91233955	      1.30847994	      1.29317519	      0.00000000	      0.00000000
      4.21500000	      6.43718594	    -37.18885096	      6.04429333	     -0.03383418	      0.61902663	     -1.14269699	    106.07684435	    -47.66545622	      1.21145885	     82.24219143	      0.00000000	      9.89357550	      1.43539702	      9.16217340	      0.00000000	      0.00000000	    100.00612854	    -37.09718009	     -6.52532422	     75.25827739	      0.00000000	     -9.91318289	      1.31350473	      1.30312166	      0.00000000	      0.00000000
      4.22000000	      6.43721175	    -37.17743286	      6.04640406	     -0.03392896	      0.61739899	     -1.14261259	    106.39966572	    -47.69536864	      1.46536539	     82.52594503	      0.00000000	      9.89423231	      1.44034946	      9.25107731	      0.00000000	      0.00000000	    100.28698834	    -37.22125131	     -6.40308825	     75.54707194	      0.00000000	     -9.91397255	      1.31854515	      1.30558397	      0.00000000	      0.00000000
      4.22500000	      6.42085406	    -37.19896965	      6.03049747	     -0.03400235	      0.61578924	     -1.14252126	    106.74552367	    -47.71859506	      1.69340314	     82.81121463	      0.00000000	      9.89483555	      1.44532835	      9.29597306	      0.00000000	      0.00000000	    100.60196232	    -37.35679191	     -6.26605651	     75.83216158	      0.00000000	     -9.91457824	      1.32352090	      1.32232806	      0.00000000	      0.00000000
      4.23000000	      6.43551773	    -37.22873923	      6.03401023	     -0.03407547	      0.61419567	     -1.14242992	    107.10520267	    -47.75976669	      1.93542857	     83.09617373	      0.00000000	      9.89547114	      1.45030183	      9.36865941	      0.00000000	      0.00000000	    100.92369767	    -37.46396302	     -6.13138809	     76.11237304	      0.00000000	     -9.91524895	      1.32841151	      1.33327216	      0.00000000	      0.00000000
      4.23500000	      6.45279994	    -37.24740048	      6.00361478	     -0.03411329	      0.61259017	     -1.14234150	    107.40913633	    -47.82450682	      2.11623377	     83.37473316	      0.00000000	      9.89608197	      1.45516361	      9.44032800	      0.00000000	      0.00000000	    101.26344805	    -37.55849868	     -5.94389481	     76.39980191	      0.00000000	     -9.91589950	      1.33342809	      1.38483318	      0.00000000	      0.00000000
      4.24000000	      6.44308997	    -37.29846764	      6.03709220	     -0.03421548	      0.61101208	     -1.14223417	    107.83347502	    -47.81576517	      2.42473987	     83.65848704	      0.00000000	      9.89661921	      1.46011605	      9.51749159	      0.00000000	      0.00000000	    101.56603377	    -37.69421502	     -5.86347487	     76.66383521	      0.00000000	     -9.91659106	      1.33803634	      1.35767529	      0.00000000	      0.00000000
      4.24500000	      6.44452895	    -37.31072452	      6.03315435	     -0.03425794	      0.60942178	     -1.14213452	    108.16823057	    -47.84845553	      2.65862266	     83.93791429	      0.00000000	      9.89719880	      1.46499297	      9.59518165	      0.00000000	      0.00000000	    101.86606424	    -37.80918998	     -5.72474549	     76.93891185	      0.00000000	     -9.91725228	      1.34283733	      1.37671144	      0.00000000	      0.00000000
      4.25000000	      6.45477553	    -37.32310462	      6.02300160	     -0.03430489	      0.60781546	     -1.14203653	    108.49611184	    -47.89354658	      2.88091090	     84.21831881	      0.00000000	      9.89774676	      1.46988695	      9.66369762	      0.00000000	      0.00000000	    102.18113669	    -37.90991466	     -5.56402574	     77.21610944	      0.00000000	     -9.91786683	      1.34767535	      1.40009647	      0.00000000	      0.00000000
      4.25500000	      6.46147570	    -37.35492794	      6.05216631	     -0.03436603	      0.60619409	     -1.14194608	    108.89529008	    -47.91062202	      3.17465898	     84.50408898	      0.00000000	      9.89838339	      1.47487458	      9.73588382	      0.00000000	      0.00000000	    102.47832092	    -38.02513156	     -5.45756218	     77.48815654	      0.00000000	     -9.91848839	      1.35242346	      1.39989287	      0.00000000	      0.00000000
      4.26000000	      6.46420844	    -37.36540862	      6.03364833	     -0.03438779	      0.60455641	     -1.14184222	    109.21434295	    -47.95399179	      3.38745489	     84.78516205	      0.00000000	      9.89898609	      1.47978023	      9.81967444	      0.00000000	      0.00000000	    102.80209485	    -38.13212019	     -5.28111963	     77.77381835	      0.00000000	     -9.91908551	      1.35740920	      1.42337143	      0.00000000	      0.00000000
      4.26500000	      6.45756823	    -37.39445618	      6.07172189	     -0.03444575	      0.60287396	     -1.14174052	    109.64195058	    -47.95204591	      3.71422012	     85.08255327	      0.00000000	      9.89957653	      1.48497069	      9.91152415	      0.00000000	      0.00000000	    103.09396998	    -38.26060138	     -5.17953141	     78.05114237	      0.00000000	     -9.91968287	      1.36224942	      1.43151357	      0.00000000	      0.00000000
      4.27000000	      6.47359560	    -37.37750474	      6.04734244	     -0.03447018	      0.60117753	     -1.14165737	    109.93309535	    -48.01361783	      3.92127163	     85.37187661	      0.00000000	      9.90022372	      1.49002034	      9.98517048	      0.00000000	      0.00000000	    103.40856157	    -38.34226474	     -4.97763361	     78.33989782	      0.00000000	     -9.92028366	      1.36728915	      1.45739480	      0.00000000	      0.00000000
      4.27500000	      6.45696067	    -37.36092902	      6.08882054	     -0.03448270	      0.59943157	     -1.14157317	    110.32838155	    -48.01178959	      4.26309679	     85.67537507	      0.00000000	      9.90076771	      1.49531738	     10.06698985	      0.00000000	      0.00000000	    103.65127738	    -38.48079353	     -4.88306702	     78.63219789	      0.00000000	     -9.92087517	      1.37239075	      1.49075362	      0.00000000	      0.00000000
      4.28000000	      6.43112400	    -37.36852868	      6.08263079	     -0.03450998	      0.59769017	     -1.14147438	    110.68922210	    -48.01120840	      4.53182456	     85.97098026	      0.00000000	      9.90136276	      1.50047667	     10.15211586	      0.00000000	      0.00000000	    103.96398267	    -38.61391193	     -4.71722827	     78.92428023	      0.00000000	     -9.92146978	      1.37748855	      1.51173535	      0.00000000	      0.00000000
